<?xml version="1.0" encoding="UTF-8" standalone="no"?>
<svg
   version="1.1"
   id="svg1570"
   xml:space="preserve"
   width="619.71198"
   height="60.773331"
   viewBox="0 0 619.71198 60.773332"
   xmlns="http://www.w3.org/2000/svg"
   xmlns:svg="http://www.w3.org/2000/svg"
   xmlns:rdf="http://www.w3.org/1999/02/22-rdf-syntax-ns#"
   xmlns:cc="http://creativecommons.org/ns#"
   xmlns:dc="http://purl.org/dc/elements/1.1/"><metadata
     id="metadata1576"><rdf:RDF><cc:Work
         rdf:about=""><dc:format>image/svg+xml</dc:format><dc:type
           rdf:resource="http://purl.org/dc/dcmitype/StillImage" /></cc:Work></rdf:RDF></metadata><defs
     id="defs1574"><clipPath
       clipPathUnits="userSpaceOnUse"
       id="clipPath1586"><path
         d="M 0,136.736 H 558.002 V 0 H 0 Z"
         id="path1584" /></clipPath></defs><g
     id="g1578"
     transform="matrix(1.3333333,0,0,-1.3333333,-63.338932,121.544)"><g
       id="g1580"><g
         id="g1582"
         clip-path="url(#clipPath1586)"><g
           id="g1588"
           transform="translate(72.219,45.5788)"><path
             d="M 0,0 C 12.586,0 22.789,10.203 22.789,22.789 22.789,35.375 12.586,45.579 0,45.579 V 35.017 c 6.742,0 12.228,-5.485 12.228,-12.228 C 12.228,16.047 6.742,10.562 0,10.562 Z"
             style="fill:#ffffff;fill-opacity:1;fill-rule:nonzero;stroke:none"
             id="path1590" /></g><g
           id="g1592"
           transform="translate(70.2932,56.1403)"><path
             d="m 0,0 c -6.742,0 -12.228,5.485 -12.228,12.228 0,6.742 5.486,12.228 12.228,12.228 v 10.561 c -12.586,0 -22.789,-10.203 -22.789,-22.789 0,-12.586 10.203,-22.79 22.789,-22.79 z"
             style="fill:#ffffff;fill-opacity:1;fill-rule:nonzero;stroke:none"
             id="path1594" /></g><path
           d="M 189.073,91.157 H 200.47 V 80.595 h -11.397 z"
           style="fill:#ffffff;fill-opacity:1;fill-rule:nonzero;stroke:none"
           id="path1596" /><path
           d="m 227.456,91.157 h 11.397 V 80.595 h -11.397 z"
           style="fill:#ffffff;fill-opacity:1;fill-rule:nonzero;stroke:none"
           id="path1598" /><g
           id="g1600"
           transform="translate(225.5305,91.1574)"><path
             d="m 0,0 h -6.287 -10.561 -6.286 v -10.562 h 6.286 v -35.017 h 10.561 v 35.017 H 0 Z"
             style="fill:#ffffff;fill-opacity:1;fill-rule:nonzero;stroke:none"
             id="path1602" /></g><g
           id="g1604"
           transform="translate(328.3083,45.5788)"><path
             d="M 0,0 C 12.586,0 22.789,10.203 22.789,22.789 22.789,35.375 12.586,45.579 0,45.579 V 35.017 c 6.742,0 12.228,-5.485 12.228,-12.228 C 12.228,16.047 6.742,10.562 0,10.562 Z"
             style="fill:#ffffff;fill-opacity:1;fill-rule:nonzero;stroke:none"
             id="path1606" /></g><g
           id="g1608"
           transform="translate(266.2737,56.1403)"><path
             d="m 0,0 c -6.743,0 -12.228,5.485 -12.228,12.228 0,6.742 5.485,12.228 12.228,12.228 v 10.561 c -12.586,0 -22.79,-10.203 -22.79,-22.789 0,-12.586 10.204,-22.79 22.79,-22.79 z"
             style="fill:#ffffff;fill-opacity:1;fill-rule:nonzero;stroke:none"
             id="path1610" /></g><path
           d="m 268.128,91.157 h 58.254 V 80.595 h -58.254 z"
           style="fill:#ffffff;fill-opacity:1;fill-rule:nonzero;stroke:none"
           id="path1612" /><path
           d="m 268.128,56.14 h 58.254 V 45.578 h -58.254 z"
           style="fill:#ffffff;fill-opacity:1;fill-rule:nonzero;stroke:none"
           id="path1614" /><g
           id="g1616"
           transform="translate(116.3611,45.5788)"><path
             d="m 0,0 h -11.095 v 30.76 c 0,14.819 11.121,14.819 11.121,14.819 H 3.9 V 35.017 c 0,0 -3.9,0 -3.9,-5.267 z"
             style="fill:#ffffff;fill-opacity:1;fill-rule:nonzero;stroke:none"
             id="path1618" /></g><g
           id="g1620"
           transform="translate(170.7664,91.1574)"><path
             d="m 0,0 h 11.095 v -30.759 c 0,-14.82 -11.121,-14.82 -11.121,-14.82 H -3.9 v 10.562 c 0,0 3.9,0 3.9,5.267 z"
             style="fill:#ffffff;fill-opacity:1;fill-rule:nonzero;stroke:none"
             id="path1622" /></g><g
           id="g1624"
           transform="translate(126.4832,91.1574)"><path
             d="m 0,0 h -4.296 v -10.562 h 1.594 c 3.757,0 4.495,-2.31 15.33,-16.927 10.835,-14.616 13.663,-18.09 20.633,-18.09 h 5.197 v 10.562 h -2.63 c -4.619,0 -3.902,0.492 -15.724,15.884 C 8.282,-3.741 6.718,0 0,0"
             style="fill:#ffffff;fill-opacity:1;fill-rule:nonzero;stroke:none"
             id="path1626" /></g><path
           d="m 374.692,91.157 h 19.383 V 80.595 h -19.383 z"
           style="fill:#ffffff;fill-opacity:1;fill-rule:nonzero;stroke:none"
           id="path1628" /><path
           d="m 374.692,66.702 h 19.383 V 56.14 h -19.383 z"
           style="fill:#ffffff;fill-opacity:1;fill-rule:nonzero;stroke:none"
           id="path1630" /><path
           d="m 372.808,45.579 h -11.567 v 45.579 h 11.567 z"
           style="fill:#ffffff;fill-opacity:1;fill-rule:nonzero;stroke:none"
           id="path1632" /><g
           id="g1634"
           transform="translate(395.9587,56.1403)"><path
             d="M 0,0 C 9.669,0 17.508,7.839 17.508,17.508 17.508,27.178 9.669,35.017 0,35.017 V 24.456 c 3.83,0 6.946,-3.117 6.946,-6.948 0,-3.83 -3.116,-6.946 -6.946,-6.946 z"
             style="fill:#ffffff;fill-opacity:1;fill-rule:nonzero;stroke:none"
             id="path1636" /></g><path
           d="m 435.583,45.579 h -11.567 v 45.579 h 11.567 z"
           style="fill:#ffffff;fill-opacity:1;fill-rule:nonzero;stroke:none"
           id="path1638" /><g
           id="g1640"
           transform="translate(468.3738,56.1403)"><path
             d="m 0,0 c -6.743,0 -12.229,5.485 -12.229,12.228 0,6.742 5.486,12.228 12.229,12.228 v 10.561 c -12.587,0 -22.79,-10.203 -22.79,-22.789 0,-12.586 10.203,-22.79 22.79,-22.79 z"
             style="fill:#ffffff;fill-opacity:1;fill-rule:nonzero;stroke:none"
             id="path1642" /></g><path
           d="m 470.299,91.157 h 20.383 V 80.595 h -20.383 z"
           style="fill:#ffffff;fill-opacity:1;fill-rule:nonzero;stroke:none"
           id="path1644" /><path
           d="m 470.299,56.14 h 20.383 V 45.578 h -20.383 z"
           style="fill:#ffffff;fill-opacity:1;fill-rule:nonzero;stroke:none"
           id="path1646" /><g
           id="g1648"
           transform="translate(492.6062,56.1403)"><path
             d="m 0,0 v -10.562 c 8.396,0 15.728,4.544 19.682,11.305 L 10.98,6.854 C 8.987,2.798 4.815,0 0,0"
             style="fill:#ffffff;fill-opacity:1;fill-rule:nonzero;stroke:none"
             id="path1650" /></g><g
           id="g1652"
           transform="translate(492.6062,91.1574)"><path
             d="m 0,0 v -10.562 c 3.756,0 7.12,-1.703 9.365,-4.377 l 8.662,6.084 C 13.859,-3.471 7.337,0 0,0"
             style="fill:#ffffff;fill-opacity:1;fill-rule:nonzero;stroke:none"
             id="path1654" /></g></g></g></g></svg>
